<svg xmlns="http://www.w3.org/2000/svg" viewBox="0 0 100 100" width="100" height="100">
  <defs>
    <linearGradient id="bg" x1="0%" y1="0%" x2="100%" y2="100%">
      <stop offset="0%" style="stop-color:#1a8fd1"/>
      <stop offset="100%" style="stop-color:#0d6eaa"/>
    </linearGradient>
  </defs>

  <!-- Blue rounded square -->
  <rect width="100" height="100" rx="22" fill="url(#bg)"/>

  <!-- ✈ path rotated 90° clockwise, scaled down to be less bold -->
  <g transform="translate(50,50) rotate(90) scale(0.44) translate(-53.5,-53.5)">
    <path fill="#0d1f2e" d="M98.1,55.7L63,34.8V13.5C63,8.3,58.7,4,53.5,4S44,8.3,44,13.5v21.3L8.9,55.7C7.1,56.8,6,58.7,6,60.8v5.3
      c0,2.7,2.5,4.7,5.1,4.1l32.8-8.2v16.6L36,83.4c-0.7,0.5-1.1,1.4-1.1,2.3v3.8c0,1.8,1.7,3.1,3.4,2.6l15.2-4.3l15.2,4.3
      c1.8,0.5,3.4-0.8,3.4-2.6v-3.8c0-0.9-0.4-1.7-1.1-2.3l-7.9-4.8V61.9l32.8,8.2c2.7,0.7,5.1-1.4,5.1-4.1v-5.3
      C101,58.7,99.9,56.8,98.1,55.7z"/>
  </g>
</svg>
